<svg xmlns="http://www.w3.org/2000/svg" viewBox="0 0 62.8 73.8"><path fill="#B8914F" fill-rule="evenodd" d="M20.4 67.2C19.8 67.1 19.1 66.9 18.7 66.8C18.3 66.6 17.7 66.5 17.4 66.5C16.8 66.5 15 65.8 14 65.2C13.8 65.1 13.3 64.8 13 64.7C11 63.7 7.2 59.9 5.6 57.2C4.7 55.8 3 52.4 3 52.1C3 51.9 2.8 51.3 2.5 50.8C2.2 50.3 2 49.6 2 49.3C2 49 1.8 48.2 1.5 47.5C0.8 46 1 45.5 1.9 45.5C2.3 45.5 3.3 45.3 4.1 45.1C6.3 44.6 9.6 44.4 11.8 44.7C15.7 45.2 17.4 45.5 18.5 45.9C19.1 46.1 20 46.4 20.5 46.5C21 46.6 21.6 46.8 21.9 46.9C22.2 47.1 23 47.5 23.8 47.8C24.5 48.1 25.3 48.5 25.5 48.6C25.9 48.8 27.3 49.6 28.7 50.6C30.2 51.6 30.6 51.4 30.6 49.8C30.7 45.9 31.1 41.2 31.5 39.5C31.8 38.4 32 37.2 32 36.8C32 36.3 32.1 35.7 32.4 35.3C32.6 34.9 32.8 34.1 32.9 33.6C33 33.1 33.3 32.2 33.5 31.7C33.8 31.2 34 30.6 34 30.3C34 30.1 34.2 29.4 34.5 28.8C34.8 28.1 35.3 27.1 35.6 26.5C35.9 25.9 36.2 25.2 36.3 25C36.4 24.8 36.7 24.2 37 23.6C37.3 23.1 37.8 22.2 38.1 21.6C38.4 21.1 38.8 20.4 38.9 20.1C39.1 19.8 39.4 19.4 39.6 19.3C39.8 19.1 40 18.9 40 18.7C40 18.3 44.7 12.5 46.3 10.9C49.6 7.8 50.8 7.1 50.9 8.4C51 8.7 51.2 9.2 51.5 9.4C51.8 9.6 52 10 52 10.2C52 10.5 52.2 11 52.5 11.3C52.8 11.7 53 12.1 53 12.2C53 12.4 53.2 13 53.5 13.5C53.8 14.1 54.2 14.9 54.5 15.5C54.8 16 55 16.6 55 16.9C55 17.1 55.2 17.7 55.5 18.2C55.8 18.8 56 19.5 56 19.8C56 20 56.2 20.7 56.5 21.2C56.8 21.8 57 22.6 57 22.9C57 23.3 57.2 24.4 57.5 25.4C57.9 26.9 58 27.9 58 32.4C58 37 57.9 37.9 57.5 39.3C57.2 40.1 57 41.1 57 41.5C57 41.9 56.8 42.5 56.5 42.9C56.2 43.3 56 43.8 56 44.1C56 44.5 55.5 45.6 54.7 47C54.6 47.2 54.4 47.6 54.2 48C53.1 50.1 50.7 53.3 48.2 55.8C46.8 57.2 43.6 59.9 42.5 60.6C42.2 60.8 41.6 61.2 41 61.6C40.4 62 39.6 62.5 39.2 62.7C38.9 62.9 38.3 63.2 37.9 63.5C37.4 63.8 36.9 64.1 36.5 64.3C36.1 64.4 35.4 64.8 34.9 65C33.2 65.7 31.4 66.3 30.1 66.5C29.4 66.6 28.1 66.9 27.1 67.1C25.3 67.5 22.1 67.6 20.4 67.2ZM28.1 43.6C27.8 42 28.1 27.4 28.4 26.8C28.6 26.5 28.8 25.6 28.9 24.7C29 23.8 29.3 22.5 29.5 21.8C29.8 21.1 30 20.2 30 19.9C30 19.5 30.2 18.8 30.5 18.2C30.8 17.7 31 17.1 31 16.8C31 16.5 31.2 15.8 31.5 15.3C31.8 14.8 32 14.2 32 14.1C32 13.9 32.2 13.3 32.5 12.8C32.8 12.3 33.3 11.2 33.8 10.2C34.2 9.3 34.8 8.2 35.1 7.6C35.5 7.1 35.9 6.4 36 6.1C36.1 5.8 36.4 5.5 36.6 5.3C36.8 5.1 37 4.8 37 4.7C37 4.3 39.3 1.5 39.6 1.5C40 1.5 42.5 4.5 43 5.5C43.2 5.8 43.6 6.5 44 7C44.4 7.5 44.8 8.2 44.8 8.4C44.8 8.6 44.1 9.5 43.3 10.3C39.4 14.5 37.2 17.7 34.4 23.4C34.2 23.6 33.9 24.4 33.6 24.9C33.2 25.5 33 26.1 33 26.3C33 26.5 32.8 26.9 32.6 27.4C32.4 27.8 32.1 28.4 32 28.9C31.9 29.3 31.6 30.1 31.4 30.8C30.3 34.1 29.8 36.5 29.1 41.6C28.9 43.1 28.8 44.4 28.8 44.5C28.8 44.5 28.6 44.5 28.5 44.5C28.4 44.5 28.2 44.1 28.1 43.6ZM22.4 72.2C22.1 71.9 22.5 71.5 23.1 71.5C23.4 71.5 24.1 71.3 24.7 71C25.3 70.7 26 70.5 26.3 70.5C26.5 70.5 27.1 70.3 27.6 70C28 69.7 28.6 69.5 29 69.5C29.4 69.5 30 69.3 30.4 69C30.9 68.7 31.4 68.5 31.7 68.5C31.9 68.5 32.6 68.3 33.1 68C33.6 67.7 34.2 67.5 34.4 67.5C34.7 67.5 35.2 67.3 35.6 67C36.1 66.7 36.6 66.5 36.8 66.5C37.1 66.5 37.7 66.3 38.2 66C38.7 65.8 39.7 65.3 40.4 65C41.1 64.7 41.8 64.3 42 64.2C42.2 64.1 43.2 63.6 44.1 63.1C45.1 62.6 46.4 61.9 47 61.5C47.6 61.1 48.3 60.7 48.5 60.6C49.3 60.2 54.2 56.5 55.4 55.3C55.7 55 56.4 54.5 57 54.2C58 53.8 58.1 53.7 59.1 54.1C60.4 54.6 60.9 55.1 61.2 56.3C61.6 57.7 61.1 58.9 59.9 59.8C58.8 60.6 58 60.7 56.9 60.1C55.9 59.6 55.5 59.6 54.8 60.5C52.8 62.6 49.4 65.3 47.1 66.3C46.7 66.5 46.2 66.9 46 67.1C45.8 67.3 45.5 67.5 45.3 67.5C45.1 67.5 44.6 67.7 44.1 68C41.9 69.1 40.9 69.5 40.4 69.5C40.2 69.5 39.6 69.7 39 70C38.4 70.3 37.7 70.5 37.2 70.5C36.8 70.5 36.1 70.7 35.7 70.9C35.3 71.1 34.1 71.4 33.2 71.5C32.2 71.6 30.5 71.9 29.4 72.1C27.1 72.5 22.6 72.6 22.4 72.2Z"/></svg>